{"title":"Justice League War 2014 720p HDRip x264 AAC-BDM","uid":9509506,"size":698845225,"categoryP":"video","categoryS":"hd___movies","magnet":"?xt=urn:btih:5c035686da4a270d7c9fdc1375a71a321e584b4d&amp;dn=Justice+League+War+2014+720p+HDRip+x264+AAC-BDM&amp;tr=udp%3A%2F%2Ftracker.openbittorrent.com%3A80&amp;tr=udp%3A%2F%2Fopen.demonii.com%3A1337&amp;tr=udp%3A%2F%2Ftracker.coppersurfer.tk%3A6969&amp;tr=udp%3A%2F%2Fexodus.desync.com%3A6969","seeders":1,"leechers":0,"uploader":"BigDogMoya","files":-1,"time":1390376228,"description":"Took this torrent and compressed it using Avidemux:\n &lt;a href=&quot;\nhttp://thepiratebay.se/torrent/9505552/Justice.League.War.2014.720p.WEB-DL.H264-PublicHD&quot; rel=&quot;nofollow&quot; target=&quot;_NEW&quot;&gt;\nhttp://thepiratebay.se/torrent/9505552/Justice.League.War.2014.720p.WEB-DL.H264-PublicHD&lt;/a&gt;\n\n\n\nIMDB Link:\n &lt;a href=&quot;\nhttp://www.imdb.com/title/tt3060952/&quot; rel=&quot;nofollow&quot; target=&quot;_NEW&quot;&gt;\nhttp://www.imdb.com/title/tt3060952/&lt;/a&gt;\n\n\nScreens:\n &lt;a href=&quot;\nhttp://i.imgur.com/ej9zDC0.png&quot; rel=&quot;nofollow&quot; target=&quot;_NEW&quot;&gt;\nhttp://i.imgur.com/ej9zDC0.png&lt;/a&gt;\n &lt;a href=&quot;\nhttp://i.imgur.com/5PSIYDT.png&quot; rel=&quot;nofollow&quot; target=&quot;_NEW&quot;&gt;\nhttp://i.imgur.com/5PSIYDT.png&lt;/a&gt;\n &lt;a href=&quot;\nhttp://i.imgur.com/vT071wN.png&quot; rel=&quot;nofollow&quot; target=&quot;_NEW&quot;&gt;\nhttp://i.imgur.com/vT071wN.png&lt;/a&gt;\n &lt;a href=&quot;\nhttp://i.imgur.com/733lwuU.png&quot; rel=&quot;nofollow&quot; target=&quot;_NEW&quot;&gt;\nhttp://i.imgur.com/733lwuU.png&lt;/a&gt;\n &lt;a href=&quot;\nhttp://i.imgur.com/72y2RSM.png&quot; rel=&quot;nofollow&quot; target=&quot;_NEW&quot;&gt;\nhttp://i.imgur.com/72y2RSM.png&lt;/a&gt;\n\n\n\nVideo\nID                                       : 1\nFormat                                   : AVC\nFormat/Info                              : Advanced Video Codec\nFormat profile                           : &lt;a class=&quot;__cf_email__&quot; href=&quot;/cdn-cgi/l/email-protection&quot; data-cfemail=&quot;9dd5f4faf5ddd1aeb3ac&quot;&gt;[email&amp;#160;protected]&lt;/a&gt;&lt;script cf-hash='f9e31' type=&quot;text/javascript&quot;&gt;\n/* &lt;![CDATA[ */!function(){try{var t=&quot;currentScript&quot;in document?document.currentScript:function(){for(var t=document.getElementsByTagName(&quot;script&quot;),e=t.length;e--;)if(t[e].getAttribute(&quot;cf-hash&quot;))return t[e]}();if(t&amp;&amp;t.previousSibling){var e,r,n,i,c=t.previousSibling,a=c.getAttribute(&quot;data-cfemail&quot;);if(a){for(e=&quot;&quot;,r=parseInt(a.substr(0,2),16),n=2;a.length-n;n+=2)i=parseInt(a.substr(n,2),16)^r,e+=String.fromCharCode(i);e=document.createTextNode(e),c.parentNode.replaceChild(e,c)}}}catch(u){}}();/* ]]&gt; */&lt;/script&gt;\nFormat settings, CABAC                   : Yes\nFormat settings, ReFrames                : 4 frames\nCodec ID                                 : avc1\nCodec ID/Info                            : Advanced Video Coding\nDuration                                 : 1h 19mn\nBit rate                                 : 890 Kbps\nWidth                                    : 1 280 pixels\nHeight                                   : 718 pixels\nDisplay aspect ratio                     : 16:9\nFrame rate mode                          : Constant\nFrame rate                               : 23.976 fps\nColor space                              : YUV\nChroma subsampling                       : 4:2:0\nBit depth                                : 8 bits\nScan type                                : Progressive\nBits/(Pixel*Frame)                       : 0.040\nStream size                              : 505 MiB (76%)\nWriting library                          : x264 core 123 r2189 35cf912\n\nAudio\nID                                       : 2\nFormat                                   : AAC\nFormat/Info                              : Advanced Audio Codec\nFormat profile                           : LC\nCodec ID                                 : 40\nDuration                                 : 1h 19mn\nBit rate mode                            : Constant\nBit rate                                 : 270 Kbps\nChannel(s)                               : 2 channels\nChannel(s)_Original                      : 6 channels\nChannel positions                        : Front: L C R, Side: L R, LFE\nSampling rate                            : 48.0 KHz\nCompression mode                         : Lossy\nStream size                              : 154 MiB (23%)","torrent":{"xt":"urn:btih:5c035686da4a270d7c9fdc1375a71a321e584b4d","amp;dn":"Justice+League+War+2014+720p+HDRip+x264+AAC-BDM","amp;tr":["udp%3A%2F%2Ftracker.openbittorrent.com%3A80","udp%3A%2F%2Fopen.demonii.com%3A1337","udp%3A%2F%2Ftracker.coppersurfer.tk%3A6969","udp%3A%2F%2Fexodus.desync.com%3A6969"],"infoHash":"5c035686da4a270d7c9fdc1375a71a321e584b4d","infoHashBuffer":{"type":"Buffer","data":[92,3,86,134,218,74,39,13,124,159,220,19,117,167,26,50,30,88,75,77]},"announce":[],"urlList":[]}}